<svg version="1.1" id="Layer_1" xmlns="http://www.w3.org/2000/svg" xmlns:xlink="http://www.w3.org/1999/xlink" x="0px" y="0px" viewBox="0 0 1100 217" style="enable-background:new 0 0 1100 217;" xml:space="preserve" width="1100"  height="217" >
<g>
<path d="M109.82,0c6.44,0.79,14.04,1.71,21.65,2.64c9.9,1.21,19.81,2.41,29.71,3.62c9.74,1.2,19.48,2.43,29.22,3.63
	c7.21,0.89,14.41,1.89,21.64,2.57c8.79,0.82,13.62,6.7,12.54,15.48c-1.85,15.04-3.59,30.09-5.44,45.13
	c-2,16.22-4.1,32.43-6.1,48.66c-1.69,13.69-3.28,27.39-4.94,41.09c-0.77,6.33-1.53,12.67-2.42,18.99
	c-0.91,6.45-6.71,11.01-13.42,10.32c-9.29-0.95-18.55-2.18-27.81-3.31c-4.28-0.52-8.54-1.15-12.82-1.6
	c-0.97-0.1-2.04,0.26-2.99,0.61c-25.53,9.26-51.11,18.39-76.54,27.9c-9.85,3.69-16.04-1.01-18.88-8.84
	c-17.29-47.67-34.68-95.31-52-142.97c-3.09-8.5-0.19-14.71,8.35-17.83c27.6-10.09,55.22-20.14,82.86-30.14
	c1.98-0.72,2.81-1.57,3-3.81C96.11,4.21,101.04-0.17,109.82,0z M219.16,27.49c0.33-6.28-1.44-8.58-6.7-9.32
	c-6.63-0.94-13.29-1.68-19.94-2.5c-9.9-1.22-19.8-2.43-29.69-3.65c-9.74-1.2-19.48-2.4-29.22-3.6c-8.23-1.02-16.46-2.12-24.71-3.02
	c-4.28-0.47-7.18,1.94-7.86,6.25c-0.44,2.75-0.7,5.54-1.04,8.31c-1.39,11.07-2.81,22.14-4.17,33.22
	c-1.52,12.34-2.95,24.7-4.47,37.04c-1.68,13.69-3.43,27.37-5.13,41.05c-1.4,11.31-2.72,22.64-4.15,33.94
	c-0.58,4.58,1.34,7.65,5.83,8.62c1.94,0.42,3.94,0.57,5.92,0.81c8.47,1.05,16.94,2.09,25.41,3.13c8.47,1.04,16.95,2.07,25.42,3.11
	c8.47,1.04,16.94,2.1,25.42,3.13c7.37,0.9,14.72,1.92,22.11,2.59c5.23,0.48,7.72-1.88,8.28-7.03c0.34-3.09,0.74-6.17,1.12-9.26
	c1.22-9.81,2.45-19.62,3.66-29.43c1.2-9.73,2.36-19.47,3.55-29.2c1.21-9.89,2.44-19.78,3.66-29.67c1.2-9.73,2.41-19.46,3.61-29.19
	C217.14,44.02,218.21,35.24,219.16,27.49z"></path>
<path d="M756.95,84.46c3.93,0,7.51,0,11.36,0c0,6.37,0,12.72,0,19.25c7.01,0,13.75,0,20.67,0c0-6.46,0-12.75,0-19.19
	c3.82,0,7.46,0,11.46,0c0,0.87,0,1.72,0,2.56c0,15.26-0.05,30.52,0.05,45.78c0.01,2.24-0.63,2.95-2.84,2.81
	c-2.77-0.18-5.56-0.04-8.61-0.04c0-7.36,0-14.5,0-21.83c-6.93,0-13.61,0-20.53,0c0,7.14,0,14.29,0,21.8
	c-3.64,0-7.05,0.05-10.45-0.07c-0.39-0.01-0.98-0.91-1.07-1.46c-0.17-1.09-0.05-2.23-0.05-3.35c0-14.46,0-28.92,0-43.38
	C756.95,86.47,756.95,85.61,756.95,84.46z"></path>
<path d="M881.68,135.62c-3.09,0-5.8-0.07-8.5,0.03c-1.69,0.06-1.97-0.76-1.96-2.19c0.03-6.95,0.04-13.9-0.04-20.85
	c-0.05-4.86-1.68-6.91-5.3-7.02c-4.11-0.12-7.18,2.81-7.25,7.24c-0.11,6.79-0.11,13.58-0.02,20.37c0.03,1.9-0.53,2.57-2.44,2.46
	c-2.61-0.14-5.23-0.04-7.96-0.04c0-12.48,0-24.68,0-37.07c3.11,0,6.26,0,9.57,0c0.1,1.26,0.21,2.56,0.35,4.29
	c3.2-3.52,6.71-5.59,11.26-5.46c4.5,0.13,8.34,1.38,10.87,6.17c0.48-0.72,0.76-1.32,1.19-1.77c4.61-4.74,11.49-5.86,17.41-2.85
	c3.51,1.79,5.61,4.87,5.73,8.58c0.3,9.25,0.1,18.51,0.1,27.94c-3.29,0-6.52,0-10.01,0c-0.04-0.95-0.11-1.88-0.12-2.8
	c-0.09-7.11-0.07-14.22-0.28-21.32c-0.11-3.68-1.9-5.45-5.15-5.73c-3.52-0.31-6.14,1.47-6.91,4.88c-0.35,1.54-0.49,3.16-0.5,4.74
	C881.65,121.92,881.68,128.62,881.68,135.62z"></path>
<path d="M556.77,102.53c0.12-1.46,0.21-2.7,0.32-4.04c3.14,0,6.24,0,9.54,0c0.05,0.68,0.14,1.37,0.14,2.05
	c0,10.95,0.03,21.9-0.02,32.85c-0.04,9.13-5.63,14.97-14.82,15.89c-4.12,0.41-8.15,0.35-12.05-1.08c-4-1.47-7.14-3.92-8.36-8.23
	c-0.21-0.74-0.23-1.53-0.38-2.58c3.21,0,6.15-0.06,9.08,0.05c0.53,0.02,1.33,0.64,1.49,1.15c1,3.14,5.27,4.4,9,3.8
	c3.38-0.54,5.55-2.9,5.98-6.54c0.24-2.01,0.21-4.06,0.34-6.84c-3.6,4.54-7.82,5.66-12.6,5.4c-6.22-0.34-10.57-3.38-12.86-9.12
	c-2.14-5.35-2.35-10.89-0.68-16.43C534.85,95.73,550.46,94.03,556.77,102.53z M540.16,115.64c0.07,0.01,0.14,0.02,0.21,0.03
	c0,0.8-0.06,1.6,0.01,2.39c0.47,4.96,3.4,8.32,7.43,8.58c4.28,0.27,8.1-2.59,8.72-7.16c0.37-2.69,0.18-5.58-0.4-8.24
	c-0.87-4-3.94-6.1-7.82-6.02c-3.67,0.07-6.48,2.36-7.48,6.22C540.49,112.8,540.38,114.24,540.16,115.64z"></path>
<path d="M307.62,101.63c-3.86,0-7.37,0-10.85,0c-1.9-5.65-5.77-8.76-11.08-8.94c-5.55-0.19-10.21,2.79-12.25,8.25
	c-2.38,6.37-2.47,12.84,0.45,19.08c2.44,5.21,7.49,7.76,13.22,7.06c4.99-0.61,8.06-3.63,9.53-9.38c0.16-0.62,0.3-1.24,0.47-1.96
	c3.54,0,7.11,0,10.68,0c0.36,7.43-5.05,17.23-14.93,20.01c-16.6,4.67-31.75-6.26-32.45-23.46c-0.23-5.51,0.46-10.8,2.87-15.83
	c7.05-14.7,25.53-16.64,36.1-9.28C304.3,90.62,306.99,95.42,307.62,101.63z"></path>
<path d="M479.06,135.63c2.8-7.38,5.39-14.22,7.97-21.06c3.55-9.38,7.14-18.75,10.59-28.16c0.62-1.69,1.48-2.15,3.14-2.07
	c2.63,0.12,5.28-0.05,7.92,0.09c0.68,0.04,1.7,0.62,1.92,1.19c6.22,16.46,12.36,32.95,18.5,49.44c0.02,0.06-0.02,0.15-0.1,0.56
	c-3.56,0-7.2,0.05-10.83-0.07c-0.43-0.01-1-0.88-1.21-1.46c-1.02-2.76-1.85-5.59-2.94-8.31c-0.26-0.65-1.25-1.43-1.92-1.45
	c-5.36-0.12-10.72-0.11-16.08-0.01c-0.62,0.01-1.54,0.72-1.79,1.33c-1.08,2.65-2.03,5.36-2.88,8.09c-0.46,1.46-1.24,1.98-2.77,1.93
	C485.57,135.55,482.55,135.63,479.06,135.63z M504.2,97.18c-2.28,6.45-4.36,12.33-6.49,18.36c4.43,0,8.49,0,12.83,0
	C508.45,109.49,506.42,103.59,504.2,97.18z"></path>
<path d="M408.73,102.11c0-5.85,0-11.64,0-17.58c3.45,0,6.68,0,10.21,0c0.04,0.73,0.12,1.49,0.12,2.25
	c0.01,15.42-0.04,30.85,0.06,46.27c0.01,2.19-0.69,2.77-2.74,2.62c-2.29-0.17-4.6-0.04-7.07-0.04c0-1.44,0-2.61,0-4.57
	c-2.54,3.25-5.34,4.84-8.8,5.23c-9.07,1-15.58-3.24-18.13-11.98c-1.75-6.01-1.65-12.01,1.03-17.76
	c4.67-10.02,16.68-12.24,24.69-4.66C408.19,101.98,408.37,101.99,408.73,102.11z M400.61,128.59c3.39,0.29,5.83-1.48,7.12-4.61
	c1.9-4.59,1.89-9.35,0.06-13.97c-1.23-3.1-3.77-4.7-7.1-4.77c-3.39-0.07-6.12,1.29-7.56,4.45c-2.16,4.74-2.17,9.61,0.07,14.32
	C394.59,126.93,396.92,128.75,400.61,128.59z"></path>
<path d="M945.19,135.62c-2.63,0-5.66,0.18-8.64-0.12c-0.79-0.08-1.43-1.62-2.34-2.73c-2.76,2.3-6.47,3.58-10.52,3.62
	c-2.05,0.02-4.17-0.09-6.15-0.59c-5.12-1.29-7.87-5.02-7.94-10.28c-0.07-5.21,2.62-9,7.83-10.34c3.53-0.91,7.2-1.31,10.8-1.94
	c0.94-0.16,1.9-0.27,2.81-0.53c1.68-0.48,3.2-1.23,3.23-3.3c0.03-1.97-0.58-4-2.62-4.31c-2.51-0.38-5.15-0.15-7.69,0.18
	c-0.79,0.1-1.89,1.3-2.03,2.13c-0.45,2.64-2.14,2.64-4.16,2.54c-2.22-0.11-4.44-0.02-6.82-0.02c0.05-4.64,2.1-8,5.85-9.89
	c7.39-3.73,15.11-3.68,22.68-0.53c3.41,1.42,5.19,4.33,5.15,8.2c-0.05,4.71-0.08,9.42,0.01,14.13
	C944.72,126.35,944.99,130.87,945.19,135.62z M934.39,118.15c-2.97,0.51-5.47,0.86-7.93,1.39c-1.46,0.32-2.98,0.71-4.26,1.44
	c-2.65,1.51-2.94,5.5-0.7,7.36c3.81,3.15,11.34,0.8,12.38-3.97C934.32,122.38,934.24,120.28,934.39,118.15z"></path>
<path d="M347.1,135.62c-2.68,0-5.56-0.08-8.43,0.03c-2.31,0.08-1.53-1.97-2.31-3.15c-4.41,3.53-9.47,4.37-14.88,3.79
	c-5.89-0.64-9.58-4.3-10.06-10.02c-0.47-5.58,2.44-9.73,8.24-11.21c3.38-0.86,6.89-1.22,10.35-1.82c0.94-0.16,1.9-0.26,2.82-0.53
	c1.68-0.48,3.17-1.23,3.23-3.31c0.07-2.13-0.69-4.07-2.83-4.43c-2.29-0.38-4.77-0.33-7.03,0.17c-1.11,0.24-2.35,1.76-2.74,2.96
	c-0.52,1.59-1.27,1.9-2.73,1.85c-2.62-0.09-5.24-0.03-8-0.03c0.02-4.7,2.14-8.05,5.92-9.94c7.32-3.66,14.98-3.61,22.49-0.55
	c3.52,1.44,5.33,4.39,5.29,8.37c-0.06,5.67-0.09,11.35,0.02,17.02C346.51,128.32,346.86,131.8,347.1,135.62z M336.19,118.15
	c-2.92,0.5-5.34,0.84-7.72,1.37c-1.54,0.34-3.14,0.72-4.48,1.49c-2.65,1.5-2.91,5.52-0.65,7.35c3.76,3.05,11.13,0.86,12.29-3.79
	C336.12,122.53,336.01,120.35,336.19,118.15z"></path>
<path d="M607.73,135.62c-3.1,0-6.13,0.18-9.12-0.12c-0.78-0.08-1.42-1.63-2.31-2.74c-2.76,2.3-6.46,3.57-10.51,3.64
	c-1.9,0.03-3.86-0.01-5.7-0.45c-5.46-1.31-8.31-4.98-8.4-10.44c-0.09-5.29,2.62-9,8.07-10.4c3.46-0.89,7.05-1.26,10.58-1.88
	c1.1-0.19,2.22-0.32,3.27-0.67c1.51-0.5,3.06-1.45,2.69-3.16c-0.33-1.55-1.28-3.86-2.4-4.15c-2.41-0.63-5.13-0.36-7.67-0.05
	c-0.85,0.1-2.07,1.34-2.24,2.23c-0.49,2.64-2.17,2.61-4.18,2.52c-2.22-0.1-4.45-0.02-6.84-0.02c0.13-4.71,2.2-8.12,6.09-10.02
	c7.27-3.55,14.84-3.51,22.27-0.5c3.52,1.42,5.34,4.33,5.36,8.31c0.05,7.98,0.21,15.96,0.38,23.95
	C607.11,132.91,607.48,134.14,607.73,135.62z M596.57,118.11c-2.82,0.51-5.16,0.87-7.47,1.37c-1.54,0.33-3.16,0.63-4.55,1.33
	c-2.85,1.45-3.32,5.49-1.03,7.47c3.62,3.13,11.2,0.97,12.35-3.65C596.39,122.59,596.34,120.4,596.57,118.11z"></path>
<path d="M1039.9,148.14c0-2.89,0-5.58,0-8.54c1.38,0.12,2.62,0.23,3.86,0.33c4.83,0.42,7.1-2.46,5.41-7.04
	c-4-10.83-8.07-21.63-12.11-32.44c-0.22-0.59-0.43-1.18-0.75-2.08c3.5,0,6.81-0.08,10.11,0.08c0.52,0.03,1.22,1.06,1.46,1.75
	c2.39,6.99,4.7,14.01,7.04,21.02c0.2,0.59,0.43,1.17,0.82,2.21c2.77-8.63,5.4-16.83,8-24.96c3.64,0,7.05,0,10.74,0
	c-1.06,2.86-2.06,5.53-3.05,8.2c-4.07,10.97-8.12,21.95-12.21,32.91c-2.53,6.78-6.52,9.34-13.81,8.93
	C1043.66,148.41,1041.91,148.27,1039.9,148.14z"></path>
<path d="M806.9,98.44c3.51,0,6.77,0,10.38,0c0,0.91,0,1.76,0,2.6c0.02,6.79-0.04,13.58,0.08,20.36c0.07,4.42,1.85,6.52,5.43,6.85
	c4.49,0.42,7.12-1.38,8.07-5.6c0.28-1.23,0.41-2.52,0.42-3.78c0.04-6.55,0.03-13.1,0.03-19.64c0-0.16,0.04-0.31,0.1-0.66
	c3.35,0,6.73,0,10.27,0c0,12.21,0,24.47,0,36.9c-3.22,0-6.44,0-9.87,0c0-1.4,0-2.72,0-4.59c-3.2,3.74-6.71,5.52-11.27,5.5
	c-8.86-0.05-12.96-3.17-13.51-12.13C806.49,115.74,806.9,107.19,806.9,98.44z"></path>
<path d="M631.67,98.44c3.2,0,6.21,0,9.5,0c0,1.44,0,2.81,0,4.63c1.45-1.32,2.45-2.43,3.64-3.28c4.3-3.11,11.91-3.25,16.38-0.38
	c3.33,2.14,4.74,5.48,4.85,9.16c0.27,8.46,0.23,16.93,0.22,25.4c0,0.55-0.88,1.55-1.39,1.58c-2.85,0.16-5.71,0.07-8.86,0.07
	c0-3.02,0.04-5.79-0.01-8.56c-0.1-5.42-0.07-10.86-0.47-16.26c-0.26-3.42-2.13-4.93-5.23-5.2c-3.64-0.32-6.65,1.15-7.53,4.17
	c-0.66,2.26-0.93,4.7-0.98,7.06c-0.13,6.14-0.04,12.28-0.04,18.6c-3.43,0-6.66,0-10.08,0C631.67,123.17,631.67,110.92,631.67,98.44
	z"></path>
<path d="M976.2,135.62c0-6.8,0.03-13.26-0.02-19.73c-0.01-1.67-0.14-3.35-0.39-5c-0.51-3.38-2.15-4.97-5.22-5.28
	c-3.61-0.36-6.65,1.1-7.59,4.09c-0.66,2.1-0.96,4.37-1.01,6.58c-0.14,5.51-0.05,11.03-0.05,16.54c0,0.85,0,1.7,0,2.65
	c-3.54,0-6.78,0-10.15,0c0-12.36,0-24.56,0-36.93c3.14,0,6.29,0,9.58,0c0,1.41,0,2.75,0,4.37c0.47-0.27,0.78-0.35,0.93-0.55
	c3.79-5.21,11.45-6.04,17.03-3.97c4.93,1.84,6.81,5.94,6.96,10.75c0.26,8.22,0.14,16.46,0.21,24.69c0.01,1.1-0.16,1.84-1.54,1.81
	C982.16,135.58,979.37,135.62,976.2,135.62z"></path>
<path d="M456.62,109.28c-3.17,0-6.35,0-9.49,0c-1.39-4.36-6.88-6.4-10.92-4.16c-2.19,1.22-2.32,4.04,0.04,5.14
	c2.42,1.12,5.11,1.68,7.71,2.42c1.99,0.57,4.04,0.93,6.01,1.56c3.86,1.22,7.09,3.31,7.7,7.64c0.67,4.76-0.61,9.15-4.98,11.58
	c-2.76,1.53-6.08,2.27-9.24,2.8c-4.13,0.69-8.3,0.18-12.22-1.43c-5-2.05-7.61-5.83-7.94-11.37c3.31,0,6.55,0,9.79,0
	c1.03,5.55,8.24,8.16,12.76,4.65c2.43-1.88,2.04-5.14-0.96-6.24c-3.2-1.17-6.57-1.9-9.86-2.83c-1.45-0.41-2.94-0.73-4.34-1.26
	c-3.4-1.29-6.05-3.41-6.45-7.29c-0.43-4.16,0.78-7.75,4.38-10.24c5.46-3.77,17.4-3.88,22.96-0.23
	C454.79,102.14,456.66,105.53,456.62,109.28z"></path>
<path d="M703.97,109.38c-2.9,0-5.61,0.07-8.32-0.06c-0.56-0.03-1.42-0.7-1.56-1.23c-0.58-2.22-2.23-3.11-4.18-3.41
	c-1.64-0.25-3.42-0.37-4.99,0.04c-1.11,0.29-2.38,1.37-2.83,2.41c-0.65,1.49,0.35,2.88,1.85,3.4c2.47,0.86,5.02,1.5,7.55,2.19
	c1.92,0.52,3.89,0.88,5.78,1.49c3.74,1.21,6.99,3.18,7.66,7.4c0.77,4.83-0.44,9.31-4.89,11.84c-2.67,1.52-5.91,2.27-8.99,2.79
	c-4.13,0.7-8.3,0.25-12.24-1.32c-5.09-2.03-7.9-5.72-8.12-11.45c3.22,0,6.38,0,9.56,0c1.52,5.29,6.75,7.65,11.78,5.29
	c1.54-0.72,2.61-1.73,2.65-3.61c0.04-1.98-1.16-2.95-2.77-3.42c-4.43-1.31-8.93-2.36-13.33-3.74c-3.91-1.23-6.85-3.61-7.08-8.06
	c-0.25-4.61,1.48-8.36,5.78-10.41c1.91-0.91,4.08-1.69,6.15-1.73c3.95-0.09,8.01-0.1,11.84,0.74
	C700.7,99.7,703.9,104.09,703.97,109.38z"></path>
<path d="M713.62,105.51c-2.14,0-3.96,0-5.99,0c0-2.39,0-4.64,0-7.1c1.89,0,3.77,0,5.93,0c0-3.74,0-7.28,0-10.95
	c3.51,0,6.75,0,10.31,0c0,3.55,0,7.08,0,10.81c2.59,0,4.88,0,7.35,0c0,2.43,0,4.68,0,7.16c-2.33,0-4.62,0-7.26,0
	c0,2.18,0,4.15,0,6.11c0,3.91-0.04,7.82,0.02,11.74c0.06,3.81,0.8,4.48,4.53,4.41c0.87-0.02,1.73,0,2.75,0c0,2.58,0,5.1,0,7.91
	c-4.39,0.22-8.83,0.91-13.13-0.78c-3.1-1.22-4.47-3.72-4.49-6.96c-0.04-6.47-0.02-12.93-0.02-19.4
	C713.62,107.58,713.62,106.71,713.62,105.51z"></path>
<path d="M1032.26,135.48c-3.77,0-7.47,0.4-11.04-0.1c-4.64-0.65-6.57-3.24-6.63-7.91c-0.08-6.39-0.03-12.77-0.03-19.16
	c0-0.86,0-1.72,0-2.84c-2.15,0-4.03,0-6.02,0c0-2.46,0-4.65,0-7.07c1.95,0,3.84,0,5.93,0c0-3.71,0-7.19,0-10.87
	c3.5,0,6.79,0,10.3,0c0,3.5,0,6.97,0,10.77c2.61,0,5.03,0,7.55,0c0,2.51,0,4.7,0,7.15c-2.46,0-4.82,0-7.34,0
	c0,6.69-0.05,13.13,0.03,19.56c0.02,1.78,1.2,2.69,3.03,2.66c1.35-0.02,2.7,0,4.22,0C1032.26,130.25,1032.26,132.76,1032.26,135.48
	z"></path>
<path d="M363.24,98.56c0,1.94,0,3.68,0,5.97c0.75-0.95,1.2-1.53,1.67-2.1c2.75-3.35,6.25-5.1,10.63-5.04
	c1.36,0.02,2.05,0.47,1.99,1.97c-0.09,2.62-0.03,5.25-0.03,7.96c-1.4-0.12-2.58-0.29-3.76-0.3c-5.31-0.07-9.09,2.84-9.54,8.07
	c-0.5,5.71-0.36,11.48-0.48,17.22c-0.02,1.01,0,2.03,0,3.16c-3.51,0-6.74,0-10.13,0c0-12.34,0-24.53,0-36.92
	C356.7,98.56,359.83,98.56,363.24,98.56z"></path>
<path d="M613.9,98.44c3.61,0,6.87,0,10.29,0c0,12.32,0,24.56,0,37.16c-3.03,0-6.12,0.08-9.18-0.1c-0.41-0.02-1.05-1.4-1.06-2.16
	c-0.08-8.38-0.05-16.75-0.05-25.13C613.9,105.04,613.9,101.86,613.9,98.44z"></path>
<path d="M1003.03,135.52c-3.34,0-6.51,0-9.88,0c0-12.35,0-24.59,0-37c3.21,0,6.45,0,9.88,0
	C1003.03,110.75,1003.03,123,1003.03,135.52z"></path>
<path d="M613.91,84.45c3.63,0,6.88,0,10.29,0c0,2.76,0,5.44,0,8.46c-3.05,0-6.13,0.04-9.21-0.06c-0.37-0.01-1.01-0.8-1.03-1.25
	C613.85,89.3,613.91,87,613.91,84.45z"></path>
<path d="M1003.06,92.84c-0.81,0.04-1.43,0.09-2.06,0.09c-2.54,0.01-5.08,0-7.83,0c0-2.89,0-5.6,0-8.45c3.28,0,6.5,0,9.89,0
	C1003.06,87.23,1003.06,89.89,1003.06,92.84z"></path>
</g>
</svg>