<svg version="1.1" id="Layer_1" xmlns="http://www.w3.org/2000/svg" xmlns:xlink="http://www.w3.org/1999/xlink" x="0px" y="0px" viewBox="0 0 1100 217" style="enable-background:new 0 0 1100 217;" xml:space="preserve" width="1100"  height="217" >
<style type="text/css">
.st0{fill:#FFFFFF;}
</style>
<g>
<path class="st0" d="M225.35,22.48c-0.97,7.95-2.07,16.95-3.17,25.95c-1.23,9.97-2.46,19.94-3.69,29.91
	c-1.25,10.13-2.5,20.27-3.74,30.4c-1.22,9.97-2.41,19.95-3.64,29.92c-1.24,10.05-2.5,20.1-3.74,30.15c-0.4,3.24-0.8,6.49-1.17,9.73
	c-0.56,4.96-3.19,7.45-8.2,6.99c-7.64-0.69-15.26-1.74-22.88-2.66c-11.43-1.39-22.86-2.8-34.29-4.21
	c-10.05-1.24-20.1-2.5-30.15-3.74c-5.84-0.72-11.66-1.55-17.51-2.11c-6.41-0.62-8.8-3.58-8-9.92c1.6-12.72,3.05-25.47,4.61-38.2
	c1.88-15.32,3.84-30.64,5.73-45.96c1.56-12.65,3.02-25.3,4.58-37.95c1.41-11.51,2.83-23.02,4.36-34.52
	c0.6-4.48,3.84-6.95,8.27-6.42c11.19,1.34,22.37,2.81,33.55,4.18c9.97,1.23,19.95,2.39,29.92,3.61c10.05,1.24,20.1,2.52,30.15,3.78
	c4.05,0.51,8.12,0.91,12.16,1.52C223.86,13.75,225.69,16.06,225.35,22.48z" fill="#FFFFFF"></path>
<path class="st0" d="M98.24,9.91c-0.25,1.95-0.2,3.65-0.75,5.13c-0.31,0.81-1.55,1.47-2.51,1.82C79.6,22.49,64.2,28.06,48.8,33.65
	c-11.96,4.34-23.91,8.7-35.86,13.04c-6.03,2.19-7.55,5.41-5.37,11.39c16.5,45.34,32.99,90.68,49.49,136.02
	c1.39,3.83,2.78,7.66,4.18,11.49c1.86,5.08,5.39,6.7,10.47,4.85c23.27-8.47,46.54-16.95,69.83-25.35c1.21-0.44,2.7-0.27,4.03-0.15
	c2.83,0.25,5.66,0.64,8.56,1.47c-4.83,1.76-9.65,3.53-14.48,5.29c-21.9,7.97-43.8,15.96-65.72,23.89
	c-8.57,3.1-14.97,0.11-18.11-8.48c-8.3-22.65-16.5-45.34-24.76-68.01c-9.54-26.2-19.09-52.39-28.62-78.59
	c-3.46-9.52-0.72-15.64,8.79-19.12c28.46-10.45,56.95-20.81,85.43-31.2C97.04,10.05,97.46,10.04,98.24,9.91z" fill="#FFFFFF"></path>
<path class="st0" d="M808.67,133.32c0-7.66,0-14.93,0-22.38c-7.01,0-13.84,0-20.93,0c0,7.34,0,14.67,0,22.34
	c-3.73,0-7.22,0.05-10.71-0.07c-0.39-0.01-1.04-0.96-1.08-1.51c-0.14-1.79-0.06-3.6-0.06-5.4c0-14.17,0-28.34,0-42.51
	c0-0.88,0-1.77,0-2.84c3.93,0,7.66,0,11.65,0c0,6.44,0,12.95,0,19.64c7.1,0,13.94,0,21.07,0c0-6.54,0-13.04,0-19.68
	c4.01,0,7.74,0,11.83,0c0,0.84,0,1.62,0,2.41c0,15.73-0.05,31.45,0.05,47.18c0.02,2.32-0.69,3-2.93,2.86
	C814.73,133.19,811.88,133.32,808.67,133.32z" fill="#FFFFFF"></path>
<path class="st0" d="M926.93,133.18c-3.24,0-6.55,0-10.19,0c0-1.08,0.01-2.04,0-2.99c-0.08-7.29-0.08-14.58-0.28-21.86
	c-0.1-3.61-1.89-5.41-5.12-5.77c-3.46-0.38-6.28,1.36-7.13,4.64c-0.4,1.56-0.56,3.23-0.58,4.85c-0.06,6.96-0.03,13.91-0.03,21.25
	c-3.27,0-6.43,0.09-9.57-0.1c-0.42-0.03-1.08-1.43-1.09-2.21c-0.09-5.9-0.04-11.79-0.06-17.69c0-1.56-0.04-3.11-0.1-4.67
	c-0.14-3.55-1.28-5.19-4.05-5.88c-2.94-0.73-6.29,0.51-7.56,3.18c-0.74,1.56-1.14,3.42-1.18,5.16c-0.13,6.55-0.13,13.11-0.01,19.66
	c0.04,2.08-0.65,2.73-2.67,2.62c-2.6-0.14-5.21-0.03-7.97-0.03c0-12.79,0-25.35,0-38.07c3.24,0,6.46,0,9.82,0
	c0.08,1.37,0.16,2.65,0.26,4.46c3.32-3.61,6.96-5.79,11.67-5.61c4.57,0.17,8.5,1.45,10.91,6.1c0.74-0.85,1.3-1.55,1.92-2.19
	c5.37-5.54,13.58-4.43,17.96-1.89c3.31,1.92,5.1,5.08,5.2,8.72c0.25,9.25,0.11,18.5,0.11,27.75
	C927.21,132.74,927.08,132.89,926.93,133.18z" fill="#FFFFFF"></path>
<path class="st0" d="M570.99,99.13c0.09-1.31,0.18-2.57,0.28-3.92c3.29,0,6.45,0,9.8,0c0.05,0.75,0.14,1.46,0.14,2.17
	c0.01,11.05,0.02,22.1-0.01,33.14c-0.03,9.92-5.53,15.76-15.4,16.8c-4.74,0.5-9.33,0.28-13.66-1.77c-4.22-2-7.1-5.1-7.38-10.45
	c3.26,0,6.33-0.06,9.4,0.06c0.51,0.02,1.18,0.74,1.45,1.29c1.67,3.47,4.75,3.94,8.06,3.86c3.16-0.08,5.7-1.52,6.57-4.57
	c0.76-2.66,0.79-5.52,0.82-8.39c-3.57,3.78-7.8,4.97-12.6,4.73c-6.47-0.32-11.04-3.45-13.33-9.46c-2.55-6.69-2.6-13.47,0.71-19.96
	c4.94-9.72,17.03-11.5,24.57-3.74C570.5,99.01,570.68,99.02,570.99,99.13z M571.12,113.37c-0.1-1.08-0.12-2.4-0.35-3.68
	c-0.81-4.63-3.74-7.33-8.04-7.52c-4.09-0.18-7.35,2.28-8.09,6.97c-0.47,2.97-0.43,6.26,0.34,9.16c1.51,5.73,7.99,7.66,12.51,4.06
	C570.29,120.13,571.02,116.97,571.12,113.37z" fill="#FFFFFF"></path>
<path class="st0" d="M315.91,98.46c-3.83,0-7.41,0-11.16,0c-1.29-4.69-4.24-7.84-9.21-8.82c-5.98-1.18-11.53,1.37-14.05,6.88
	c-3.07,6.7-3.19,13.65-0.25,20.44c2.39,5.52,7.52,8.23,13.54,7.6c5.16-0.54,8.4-3.72,9.92-9.73c0.16-0.62,0.3-1.24,0.46-1.91
	c3.69,0,7.34,0,11,0c0.14,8.15-5.54,18.91-17.52,21.01c-17.31,3.04-30.71-7.88-31-25.49c-0.07-4.09,0.37-8.44,1.69-12.28
	c6.08-17.57,25.06-19.99,36.42-13.59C311.84,86.02,315.19,91.32,315.91,98.46z" fill="#FFFFFF"></path>
<path class="st0" d="M542.65,133.23c-3.94,0-7.77,0-11.91,0c-1.08-3.17-2.27-6.43-3.3-9.74c-0.43-1.4-1.1-1.89-2.6-1.86
	c-5.16,0.1-10.32,0.11-15.47-0.01c-1.64-0.04-2.3,0.58-2.75,2.02c-0.85,2.72-1.77,5.42-2.83,8.07c-0.27,0.66-1.14,1.5-1.77,1.53
	c-3.34,0.15-6.7,0.07-10.22,0.07c0.08-0.64,0.05-1.13,0.2-1.54c6.15-16.32,12.34-32.63,18.45-48.96c0.57-1.53,1.27-2.2,2.98-2.1
	c2.77,0.16,5.57-0.04,8.35,0.1c0.69,0.03,1.73,0.64,1.95,1.24c6.36,16.85,12.64,33.74,18.92,50.62
	C542.67,132.74,542.65,132.83,542.65,133.23z M523.63,112.71c-2.15-6.23-4.21-12.2-6.46-18.75c-2.33,6.58-4.46,12.58-6.64,18.75
	C514.97,112.71,519.12,112.71,523.63,112.71z" fill="#FFFFFF"></path>
<path class="st0" d="M419.99,133.32c0-1.49,0-2.69,0-4.67c-2.58,3.33-5.46,4.94-8.99,5.34c-9.23,1.05-15.92-3.33-18.57-12.24
	c-1.48-4.97-1.51-9.98-0.17-14.99c3.64-13.56,18.99-16.46,27.08-7.62c0-6.15,0-12.06,0-18.17c3.59,0,6.96,0,10.53,0
	c0.05,0.8,0.14,1.59,0.14,2.38c0.01,15.71-0.03,31.43,0.05,47.14c0.01,2.22-0.53,3.09-2.86,2.89
	C424.88,133.17,422.51,133.32,419.99,133.32z M419.91,114.14c-0.27-1.78-0.43-3.5-0.81-5.16c-0.96-4.2-3.85-6.65-7.87-6.81
	c-3.91-0.16-7.02,1.98-8.37,5.92c-1.39,4.09-1.34,8.22,0.16,12.27c1.5,4.03,4.5,5.94,8.7,5.76c3.63-0.15,6.22-2.37,7.29-6.48
	C419.48,117.83,419.63,115.94,419.91,114.14z" fill="#FFFFFF"></path>
<path class="st0" d="M968.61,133.32c-2.69,0-5.8,0.18-8.86-0.12c-0.81-0.08-1.46-1.66-2.38-2.78c-2.84,2.31-6.63,3.66-10.78,3.7
	c-2.1,0.02-4.27-0.11-6.3-0.62c-5.26-1.34-8.06-5.13-8.13-10.54c-0.07-5.35,2.67-9.22,8-10.61c3.62-0.94,7.37-1.35,11.06-2
	c0.96-0.17,1.94-0.27,2.88-0.53c1.72-0.49,3.26-1.25,3.3-3.38c0.04-2.15-0.73-4.16-2.91-4.53c-2.34-0.39-4.86-0.29-7.19,0.18
	c-1.09,0.22-2.43,1.68-2.71,2.82c-0.48,1.96-1.5,2.16-3.13,2.1c-2.6-0.09-5.2-0.02-7.95-0.02c0.04-4.8,2.19-8.23,6.06-10.17
	c7.58-3.81,15.48-3.76,23.22-0.5c3.49,1.47,5.29,4.46,5.24,8.43c-0.06,4.67-0.09,9.33,0.01,14
	C968.14,123.53,968.41,128.32,968.61,133.32z M957.55,115.2c-1.71,0.45-2.87,0.81-4.06,1.04c-1.28,0.25-2.61,0.27-3.87,0.57
	c-1.5,0.36-3.06,0.7-4.39,1.42c-2.77,1.5-3.2,5.58-0.94,7.53c3.82,3.3,11.64,0.93,12.73-3.97
	C957.46,119.76,957.37,117.6,957.55,115.2z" fill="#FFFFFF"></path>
<path class="st0" d="M356.27,133.32c-2.72,0-5.82,0.18-8.87-0.12c-0.82-0.08-1.49-1.63-2.43-2.75c-2.83,2.28-6.61,3.65-10.76,3.67
	c-2.18,0.01-4.44-0.12-6.53-0.67c-5.06-1.32-7.83-5.18-7.89-10.48c-0.07-5.17,2.55-9.13,7.52-10.49c3.76-1.03,7.68-1.43,11.53-2.12
	c0.96-0.17,1.95-0.27,2.88-0.53c1.72-0.49,3.25-1.24,3.3-3.38c0.05-2.16-0.71-4.16-2.9-4.53c-2.34-0.39-4.88-0.33-7.18,0.18
	c-1.13,0.25-2.31,1.81-2.8,3.05c-0.54,1.37-1.06,1.94-2.55,1.87c-2.76-0.11-5.53-0.03-8.44-0.03c0.07-5,2.36-8.48,6.46-10.41
	c7.3-3.45,14.89-3.44,22.35-0.47c3.83,1.53,5.78,4.59,5.71,8.87c-0.08,4.99-0.1,9.99,0.01,14.98
	C355.76,124.33,356.05,128.71,356.27,133.32z M345.12,115.42c-2.97,0.51-5.53,0.87-8.06,1.41c-1.5,0.33-3.05,0.74-4.37,1.49
	c-2.63,1.5-3,5.46-0.85,7.39c3.82,3.44,11.86,0.94,12.84-4.08C345.06,119.65,344.98,117.58,345.12,115.42z" fill="#FFFFFF"></path>
<path class="st0" d="M612.76,133.19c-0.29-0.98-0.57-1.97-0.89-3.07c-5.39,4.02-11.34,5.02-17.68,3.33
	c-5.1-1.35-7.83-5.09-7.94-10.47c-0.11-5.24,2.59-9.23,7.73-10.59c3.77-0.99,7.7-1.39,11.55-2.07c1.04-0.18,2.12-0.3,3.11-0.64
	c1.53-0.53,2.89-1.39,2.88-3.24c-0.01-1.88-0.51-4-2.48-4.34c-2.56-0.44-5.29-0.28-7.89,0.03c-0.88,0.11-2.13,1.38-2.29,2.28
	c-0.49,2.71-2.23,2.67-4.28,2.58c-2.27-0.1-4.55-0.02-7.03-0.02c0.16-4.93,2.43-8.27,6.44-10.41c4.96-2.66,10.35-2.75,15.79-2.23
	c1.54,0.15,3.09,0.44,4.56,0.88c5.37,1.61,7.68,4.83,7.75,10.46c0.1,7.86,0.23,15.71,0.41,23.57c0.03,1.28,0.4,2.55,0.64,3.95
	C619.69,133.19,616.28,133.19,612.76,133.19z M611.69,115.31c-2.28,0.47-4.01,0.81-5.74,1.18c-1.98,0.42-4.05,0.63-5.92,1.35
	c-3.4,1.31-4.22,5.81-1.62,7.99c3.77,3.16,11.48,0.89,12.6-3.83C611.52,119.89,611.47,117.66,611.69,115.31z" fill="#FFFFFF"></path>
<path class="st0" d="M1101.01,95.11c-1.67,4.56-3.21,8.83-4.8,13.1c-3.57,9.62-7.17,19.24-10.75,28.86
	c-2.73,7.33-6.79,9.96-14.65,9.44c-1.7-0.11-3.4-0.25-5.23-0.39c0-2.93,0-5.75,0-8.79c1.46,0.14,2.74,0.27,4.03,0.38
	c4.83,0.4,7.13-2.51,5.45-7.07c-4.11-11.17-8.3-22.3-12.46-33.45c-0.22-0.6-0.43-1.21-0.74-2.08c3.53,0,6.85-0.08,10.16,0.08
	c0.58,0.03,1.41,0.94,1.64,1.61c2.48,7.23,4.86,14.5,7.28,21.75c0.2,0.61,0.44,1.2,0.83,2.23c2.44-7.61,4.75-14.79,7.05-21.98
	c1.18-3.68,1.17-3.69,5.04-3.69C1096.14,95.11,1098.41,95.11,1101.01,95.11z" fill="#FFFFFF"></path>
<path class="st0" d="M852.49,133.16c0-1.46,0-2.81,0-4.78c-4.04,5.22-9.08,6.22-14.72,5.62c-5.83-0.62-9.81-4.08-10.29-9.99
	c-0.51-6.35-0.43-12.74-0.55-19.12c-0.06-3.17-0.01-6.35-0.01-9.65c3.61,0,7.01,0,10.75,0c0,0.99,0,1.94,0,2.89
	c0.02,7.04-0.06,14.09,0.11,21.12c0.1,4.19,2,6.19,5.56,6.49c4.53,0.39,7.21-1.41,8.17-5.57c0.29-1.26,0.44-2.58,0.45-3.88
	c0.05-6.8,0.03-13.59,0.05-20.39c0-0.15,0.07-0.31,0.15-0.63c3.42,0,6.89,0,10.5,0c0,12.58,0,25.15,0,37.88
	C859.32,133.16,856.01,133.16,852.49,133.16z" fill="#FFFFFF"></path>
<path class="st0" d="M1000.35,133.17c0-6.9,0.02-13.52-0.02-20.15c-0.01-1.63-0.15-3.27-0.39-4.88c-0.54-3.65-2.19-5.29-5.43-5.59
	c-3.85-0.35-6.84,1.21-7.78,4.51c-0.62,2.17-0.89,4.5-0.94,6.76c-0.12,6.37-0.04,12.75-0.04,19.32c-3.49,0-6.79,0-10.33,0
	c0-12.56,0-25.12,0-37.85c3.12,0,6.34,0,9.71,0c0.07,1.46,0.13,2.87,0.21,4.74c4.3-5.39,9.64-6.75,15.77-5.52
	c5.84,1.17,9.19,4.55,9.49,10.83c0.42,9.07,0.18,18.16,0.21,27.24c0,0.14-0.14,0.29-0.29,0.59
	C1007.29,133.17,1003.98,133.17,1000.35,133.17z" fill="#FFFFFF"></path>
<path class="st0" d="M657.98,133.22c-3.65,0-6.9,0-10.34,0c0-12.65,0-25.2,0-37.93c3.15,0,6.37,0,9.76,0c0,1.43,0,2.79,0,4.28
	c0.4-0.09,0.7-0.07,0.8-0.2c4.47-5.51,10.33-6.15,16.66-4.52c4.73,1.22,7.76,5.05,7.97,10.59c0.33,8.74,0.25,17.5,0.24,26.26
	c0,0.54-0.8,1.53-1.26,1.55c-3,0.14-6.01,0.07-9.26,0.07c0-6.8,0.03-13.32-0.02-19.85c-0.01-1.87-0.14-3.76-0.43-5.61
	c-0.55-3.48-2.22-5.03-5.41-5.31c-3.72-0.32-6.79,1.2-7.69,4.3c-0.67,2.32-0.94,4.81-0.99,7.24
	C657.9,120.38,657.98,126.67,657.98,133.22z" fill="#FFFFFF"></path>
<path class="st0" d="M434.31,120.82c0.56-0.06,0.96-0.14,1.36-0.15c2.86-0.01,5.72-0.01,8.56-0.01c0.83,5.86,6.72,7.78,12.23,5.46
	c1.65-0.69,2.89-2,2.33-3.81c-0.37-1.21-1.42-2.71-2.52-3.1c-3.83-1.36-7.81-2.29-11.74-3.38c-0.86-0.24-1.74-0.42-2.57-0.75
	c-3.54-1.4-6.34-3.57-6.7-7.68c-0.39-4.39,0.83-8.38,4.86-10.52c7.57-4.02,15.45-4,23.04-0.07c3.53,1.83,5.19,5.29,5.48,9.47
	c-3.34,0-6.58,0-9.82,0c-1.74-4.4-5.85-6.27-10.45-4.52c-0.96,0.37-2.15,1.58-2.21,2.47c-0.07,1.03,0.73,2.71,1.6,3.11
	c2.42,1.09,5.07,1.69,7.65,2.42c2.04,0.57,4.14,0.95,6.16,1.59c4.04,1.27,7.4,3.44,7.99,8.02c0.65,5.02-1.01,9.2-5.39,12.05
	c-3.21,2.08-6.85,2.59-10.55,2.73c-4.29,0.16-8.52-0.22-12.41-2.24C436.76,129.62,434.59,125.87,434.31,120.82z" fill="#FFFFFF"></path>
<path class="st0" d="M687.61,120.76c3.34,0,6.51,0,9.69,0c1.86,5.65,7.41,8,12.48,5.31c1.49-0.79,2.73-1.95,2.21-3.65
	c-0.37-1.22-1.36-2.78-2.43-3.15c-4.07-1.4-8.28-2.39-12.44-3.52c-5.61-1.52-8.61-4.66-8.76-9.18c-0.17-5.47,2.8-9.58,8.3-11.34
	c1.39-0.44,2.85-0.72,4.31-0.89c4.51-0.53,9-0.39,13.27,1.34c4.67,1.89,7.46,5.95,7.39,10.74c-2.92,0-5.86,0.05-8.79-0.05
	c-0.45-0.01-1.18-0.62-1.28-1.06c-0.62-2.75-2.67-3.55-5.07-3.81c-1.21-0.13-2.45-0.07-3.67,0.01c-1.72,0.12-3.28,0.64-3.64,2.61
	c-0.38,2.11,0.95,3.23,2.7,3.8c2.32,0.74,4.71,1.29,7.07,1.91c2.05,0.53,4.16,0.88,6.15,1.59c3.68,1.31,6.92,3.33,7.57,7.56
	c0.73,4.76-0.44,9.08-4.62,11.87c-1.98,1.32-4.38,2.23-6.71,2.74c-4.85,1.07-9.76,0.88-14.53-0.66
	C691.01,131.06,688.06,127.16,687.61,120.76z" fill="#FFFFFF"></path>
<path class="st0" d="M731.49,83.93c3.61,0,6.93,0,10.57,0c0,3.63,0,7.26,0,11.09c2.65,0,5,0,7.52,0c0,2.51,0,4.82,0,7.38
	c-2.4,0-4.74,0-7.43,0c0,3.15,0,6.06,0,8.98c0,3.27-0.06,6.55,0.03,9.82c0.1,3.29,0.88,3.96,4.19,3.97c1.04,0,2.09,0,3.26,0
	c0,2.69,0,5.27,0,8.12c-4.41,0.23-8.79,0.85-13.07-0.63c-3.3-1.14-4.98-3.66-5.01-7.36c-0.05-6.63-0.02-13.26-0.02-19.89
	c0-0.88,0-1.77,0-2.9c-2.12,0-4.04,0-6.16,0c0-2.55,0-4.85,0-7.37c1.97,0,3.91,0,6.12,0C731.49,91.31,731.49,87.68,731.49,83.93z" fill="#FFFFFF"></path>
<path class="st0" d="M1057.78,133.69c-4.11-0.23-8.04-0.12-11.86-0.74c-4.18-0.67-6.18-3.32-6.25-7.55
	c-0.11-6.63-0.05-13.27-0.06-19.9c0-0.89,0-1.78,0-2.96c-2.08,0-3.99,0-6.1,0c0-2.59,0-4.9,0-7.44c1.97,0,3.9,0,6.03,0
	c0-3.81,0-7.38,0-11.13c3.59,0,6.97,0,10.57,0c0,3.64,0,7.21,0,11.01c2.62,0,5.04,0,7.64,0c0,2.54,0,4.85,0,7.42
	c-2.48,0-4.9,0-7.49,0c0,6.78-0.05,13.31,0.03,19.83c0.02,1.92,1.21,2.95,3.21,2.91c1.38-0.03,2.75-0.01,4.28-0.01
	C1057.78,127.84,1057.78,130.42,1057.78,133.69z" fill="#FFFFFF"></path>
<path class="st0" d="M387.48,104.12c-2.27,0-4.09-0.23-5.84,0.04c-5.42,0.83-8.15,4.67-8.26,11.54c-0.08,4.9-0.02,9.81-0.02,14.72
	c0,0.88,0,1.75,0,2.9c-3.27,0-6.28,0.06-9.28-0.06c-0.44-0.02-1.21-0.86-1.22-1.33c-0.07-12.17-0.05-24.34-0.05-36.66
	c3.34,0,6.5,0,9.94,0c0,1.85,0,3.74,0,5.64c2.66-3.08,5.43-5.59,9.38-6.43c0.64-0.14,1.28-0.29,1.92-0.33
	c3.23-0.19,3.43,0.01,3.43,3.29C387.48,99.71,387.48,101.98,387.48,104.12z" fill="#FFFFFF"></path>
<path class="st0" d="M629.45,95.18c3.71,0,7.05,0,10.56,0c0,12.63,0,25.19,0,38.11c-3.11,0-6.27,0.09-9.41-0.1
	c-0.43-0.03-1.09-1.43-1.1-2.2c-0.08-7.61-0.05-15.22-0.05-22.83C629.45,103.92,629.45,99.68,629.45,95.18z" fill="#FFFFFF"></path>
<path class="st0" d="M1027.89,95.27c0,12.63,0,25.18,0,38.04c-3.11,0-6.11,0.07-9.11-0.07c-0.46-0.02-1.24-0.99-1.25-1.53
	c-0.07-12.09-0.06-24.18-0.06-36.44C1021.01,95.27,1024.39,95.27,1027.89,95.27z" fill="#FFFFFF"></path>
<path class="st0" d="M629.47,80.91c3.64,0,7.02,0,10.56,0c0,2.77,0,5.5,0,8.64c-3.09,0-6.22,0.05-9.35-0.05
	c-0.41-0.01-1.13-0.75-1.15-1.18C629.41,85.9,629.47,83.48,629.47,80.91z" fill="#FFFFFF"></path>
<path class="st0" d="M1027.88,89.47c-3.5,0-6.74,0-10.19,0c0-2.84,0-5.57,0-8.51c3.3,0,6.67,0,10.19,0
	C1027.88,83.75,1027.88,86.49,1027.88,89.47z" fill="#FFFFFF"></path>
</g>
</svg>